# Tiled2Unity generated file. Do not modify by hand.
# Wavefront file for 'level_one_mesh_0001.obj'

# Vertices (Count = 1012)
v 0 -66 0
v -1 -66 0
v -1 -65 0
v 0 -65 0
v 0 -67 0
v -1 -67 0
v -1 -66 0
v 0 -66 0
v 0 -68 0
v -1 -68 0
v -1 -67 0
v 0 -67 0
v 0 -69 0
v -1 -69 0
v -1 -68 0
v 0 -68 0
v 0 -70 0
v -1 -70 0
v -1 -69 0
v 0 -69 0
v 0 -71 0
v -1 -71 0
v -1 -70 0
v 0 -70 0
v 0 -72 0
v -1 -72 0
v -1 -71 0
v 0 -71 0
v 0 -73 0
v -1 -73 0
v -1 -72 0
v 0 -72 0
v 0 -74 0
v -1 -74 0
v -1 -73 0
v 0 -73 0
v 0 -75 0
v -1 -75 0
v -1 -74 0
v 0 -74 0
v 0 -76 0
v -1 -76 0
v -1 -75 0
v 0 -75 0
v 0 -77 0
v -1 -77 0
v -1 -76 0
v 0 -76 0
v 0 -78 0
v -1 -78 0
v -1 -77 0
v 0 -77 0
v 0 -79 0
v -1 -79 0
v -1 -78 0
v 0 -78 0
v 0 -80 0
v -1 -80 0
v -1 -79 0
v 0 -79 0
v 0 -81 0
v -1 -81 0
v -1 -80 0
v 0 -80 0
v 0 -82 0
v -1 -82 0
v -1 -81 0
v 0 -81 0
v 0 -83 0
v -1 -83 0
v -1 -82 0
v 0 -82 0
v 0 -84 0
v -1 -84 0
v -1 -83 0
v 0 -83 0
v 0 -85 0
v -1 -85 0
v -1 -84 0
v 0 -84 0
v 0 -86 0
v -1 -86 0
v -1 -85 0
v 0 -85 0
v 0 -87 0
v -1 -87 0
v -1 -86 0
v 0 -86 0
v 0 -88 0
v -1 -88 0
v -1 -87 0
v 0 -87 0
v 0 -89 0
v -1 -89 0
v -1 -88 0
v 0 -88 0
v -44 -89 0
v -45 -89 0
v -45 -88 0
v -44 -88 0
v 0 -90 0
v -1 -90 0
v -1 -89 0
v 0 -89 0
v 0 -91 0
v -1 -91 0
v -1 -90 0
v 0 -90 0
v -21 -91 0
v -22 -91 0
v -22 -90 0
v -21 -90 0
v -58 -91 0
v -59 -91 0
v -59 -90 0
v -58 -90 0
v -59 -91 0
v -60 -91 0
v -60 -90 0
v -59 -90 0
v -60 -91 0
v -61 -91 0
v -61 -90 0
v -60 -90 0
v 0 -92 0
v -1 -92 0
v -1 -91 0
v 0 -91 0
v 0 -93 0
v -1 -93 0
v -1 -92 0
v 0 -92 0
v 0 -94 0
v -1 -94 0
v -1 -93 0
v 0 -93 0
v -57 -94 0
v -58 -94 0
v -58 -93 0
v -57 -93 0
v -58 -94 0
v -59 -94 0
v -59 -93 0
v -58 -93 0
v -59 -94 0
v -60 -94 0
v -60 -93 0
v -59 -93 0
v -60 -94 0
v -61 -94 0
v -61 -93 0
v -60 -93 0
v -61 -94 0
v -62 -94 0
v -62 -93 0
v -61 -93 0
v 0 -95 0
v -1 -95 0
v -1 -94 0
v 0 -94 0
v -9 -95 0
v -10 -95 0
v -10 -94 0
v -9 -94 0
v -36 -95 0
v -37 -95 0
v -37 -94 0
v -36 -94 0
v -37 -95 0
v -38 -95 0
v -38 -94 0
v -37 -94 0
v -38 -95 0
v -39 -95 0
v -39 -94 0
v -38 -94 0
v -39 -95 0
v -40 -95 0
v -40 -94 0
v -39 -94 0
v -40 -95 0
v -41 -95 0
v -41 -94 0
v -40 -94 0
v -53 -95 0
v -54 -95 0
v -54 -94 0
v -53 -94 0
v -54 -95 0
v -55 -95 0
v -55 -94 0
v -54 -94 0
v -55 -95 0
v -56 -95 0
v -56 -94 0
v -55 -94 0
v -56 -95 0
v -57 -95 0
v -57 -94 0
v -56 -94 0
v -57 -95 0
v -58 -95 0
v -58 -94 0
v -57 -94 0
v -58 -95 0
v -59 -95 0
v -59 -94 0
v -58 -94 0
v -59 -95 0
v -60 -95 0
v -60 -94 0
v -59 -94 0
v -60 -95 0
v -61 -95 0
v -61 -94 0
v -60 -94 0
v -61 -95 0
v -62 -95 0
v -62 -94 0
v -61 -94 0
v 0 -96 0
v -1 -96 0
v -1 -95 0
v 0 -95 0
v -9 -96 0
v -10 -96 0
v -10 -95 0
v -9 -95 0
v -10 -96 0
v -11 -96 0
v -11 -95 0
v -10 -95 0
v -11 -96 0
v -12 -96 0
v -12 -95 0
v -11 -95 0
v -12 -96 0
v -13 -96 0
v -13 -95 0
v -12 -95 0
v -13 -96 0
v -14 -96 0
v -14 -95 0
v -13 -95 0
v -17 -96 0
v -18 -96 0
v -18 -95 0
v -17 -95 0
v -18 -96 0
v -19 -96 0
v -19 -95 0
v -18 -95 0
v -24 -96 0
v -25 -96 0
v -25 -95 0
v -24 -95 0
v -25 -96 0
v -26 -96 0
v -26 -95 0
v -25 -95 0
v -29 -96 0
v -30 -96 0
v -30 -95 0
v -29 -95 0
v -30 -96 0
v -31 -96 0
v -31 -95 0
v -30 -95 0
v -31 -96 0
v -32 -96 0
v -32 -95 0
v -31 -95 0
v -32 -96 0
v -33 -96 0
v -33 -95 0
v -32 -95 0
v -33 -96 0
v -34 -96 0
v -34 -95 0
v -33 -95 0
v -36 -96 0
v -37 -96 0
v -37 -95 0
v -36 -95 0
v -37 -96 0
v -38 -96 0
v -38 -95 0
v -37 -95 0
v -38 -96 0
v -39 -96 0
v -39 -95 0
v -38 -95 0
v -39 -96 0
v -40 -96 0
v -40 -95 0
v -39 -95 0
v -40 -96 0
v -41 -96 0
v -41 -95 0
v -40 -95 0
v -48 -96 0
v -49 -96 0
v -49 -95 0
v -48 -95 0
v -49 -96 0
v -50 -96 0
v -50 -95 0
v -49 -95 0
v -50 -96 0
v -51 -96 0
v -51 -95 0
v -50 -95 0
v -51 -96 0
v -52 -96 0
v -52 -95 0
v -51 -95 0
v -52 -96 0
v -53 -96 0
v -53 -95 0
v -52 -95 0
v -53 -96 0
v -54 -96 0
v -54 -95 0
v -53 -95 0
v -54 -96 0
v -55 -96 0
v -55 -95 0
v -54 -95 0
v -55 -96 0
v -56 -96 0
v -56 -95 0
v -55 -95 0
v -56 -96 0
v -57 -96 0
v -57 -95 0
v -56 -95 0
v -57 -96 0
v -58 -96 0
v -58 -95 0
v -57 -95 0
v -58 -96 0
v -59 -96 0
v -59 -95 0
v -58 -95 0
v -59 -96 0
v -60 -96 0
v -60 -95 0
v -59 -95 0
v -60 -96 0
v -61 -96 0
v -61 -95 0
v -60 -95 0
v -61 -96 0
v -62 -96 0
v -62 -95 0
v -61 -95 0
v -1 -97 0
v -2 -97 0
v -2 -96 0
v -1 -96 0
v -2 -97 0
v -3 -97 0
v -3 -96 0
v -2 -96 0
v -3 -97 0
v -4 -97 0
v -4 -96 0
v -3 -96 0
v -4 -97 0
v -5 -97 0
v -5 -96 0
v -4 -96 0
v -5 -97 0
v -6 -97 0
v -6 -96 0
v -5 -96 0
v -6 -97 0
v -7 -97 0
v -7 -96 0
v -6 -96 0
v -7 -97 0
v -8 -97 0
v -8 -96 0
v -7 -96 0
v -8 -97 0
v -9 -97 0
v -9 -96 0
v -8 -96 0
v -9 -97 0
v -10 -97 0
v -10 -96 0
v -9 -96 0
v -10 -97 0
v -11 -97 0
v -11 -96 0
v -10 -96 0
v -11 -97 0
v -12 -97 0
v -12 -96 0
v -11 -96 0
v -12 -97 0
v -13 -97 0
v -13 -96 0
v -12 -96 0
v -13 -97 0
v -14 -97 0
v -14 -96 0
v -13 -96 0
v -17 -97 0
v -18 -97 0
v -18 -96 0
v -17 -96 0
v -18 -97 0
v -19 -97 0
v -19 -96 0
v -18 -96 0
v -19 -97 0
v -20 -97 0
v -20 -96 0
v -19 -96 0
v -20 -97 0
v -21 -97 0
v -21 -96 0
v -20 -96 0
v -21 -97 0
v -22 -97 0
v -22 -96 0
v -21 -96 0
v -22 -97 0
v -23 -97 0
v -23 -96 0
v -22 -96 0
v -23 -97 0
v -24 -97 0
v -24 -96 0
v -23 -96 0
v -24 -97 0
v -25 -97 0
v -25 -96 0
v -24 -96 0
v -25 -97 0
v -26 -97 0
v -26 -96 0
v -25 -96 0
v -29 -97 0
v -30 -97 0
v -30 -96 0
v -29 -96 0
v -30 -97 0
v -31 -97 0
v -31 -96 0
v -30 -96 0
v -31 -97 0
v -32 -97 0
v -32 -96 0
v -31 -96 0
v -32 -97 0
v -33 -97 0
v -33 -96 0
v -32 -96 0
v -33 -97 0
v -34 -97 0
v -34 -96 0
v -33 -96 0
v -36 -97 0
v -37 -97 0
v -37 -96 0
v -36 -96 0
v -37 -97 0
v -38 -97 0
v -38 -96 0
v -37 -96 0
v -38 -97 0
v -39 -97 0
v -39 -96 0
v -38 -96 0
v -39 -97 0
v -40 -97 0
v -40 -96 0
v -39 -96 0
v -40 -97 0
v -41 -97 0
v -41 -96 0
v -40 -96 0
v -48 -97 0
v -49 -97 0
v -49 -96 0
v -48 -96 0
v -49 -97 0
v -50 -97 0
v -50 -96 0
v -49 -96 0
v -50 -97 0
v -51 -97 0
v -51 -96 0
v -50 -96 0
v -51 -97 0
v -52 -97 0
v -52 -96 0
v -51 -96 0
v -52 -97 0
v -53 -97 0
v -53 -96 0
v -52 -96 0
v -53 -97 0
v -54 -97 0
v -54 -96 0
v -53 -96 0
v -54 -97 0
v -55 -97 0
v -55 -96 0
v -54 -96 0
v -55 -97 0
v -56 -97 0
v -56 -96 0
v -55 -96 0
v -56 -97 0
v -57 -97 0
v -57 -96 0
v -56 -96 0
v -57 -97 0
v -58 -97 0
v -58 -96 0
v -57 -96 0
v -58 -97 0
v -59 -97 0
v -59 -96 0
v -58 -96 0
v -59 -97 0
v -60 -97 0
v -60 -96 0
v -59 -96 0
v -60 -97 0
v -61 -97 0
v -61 -96 0
v -60 -96 0
v -61 -97 0
v -62 -97 0
v -62 -96 0
v -61 -96 0
v -1 -98 0
v -2 -98 0
v -2 -97 0
v -1 -97 0
v -2 -98 0
v -3 -98 0
v -3 -97 0
v -2 -97 0
v -3 -98 0
v -4 -98 0
v -4 -97 0
v -3 -97 0
v -4 -98 0
v -5 -98 0
v -5 -97 0
v -4 -97 0
v -5 -98 0
v -6 -98 0
v -6 -97 0
v -5 -97 0
v -6 -98 0
v -7 -98 0
v -7 -97 0
v -6 -97 0
v -7 -98 0
v -8 -98 0
v -8 -97 0
v -7 -97 0
v -8 -98 0
v -9 -98 0
v -9 -97 0
v -8 -97 0
v -9 -98 0
v -10 -98 0
v -10 -97 0
v -9 -97 0
v -10 -98 0
v -11 -98 0
v -11 -97 0
v -10 -97 0
v -11 -98 0
v -12 -98 0
v -12 -97 0
v -11 -97 0
v -12 -98 0
v -13 -98 0
v -13 -97 0
v -12 -97 0
v -13 -98 0
v -14 -98 0
v -14 -97 0
v -13 -97 0
v -17 -98 0
v -18 -98 0
v -18 -97 0
v -17 -97 0
v -18 -98 0
v -19 -98 0
v -19 -97 0
v -18 -97 0
v -19 -98 0
v -20 -98 0
v -20 -97 0
v -19 -97 0
v -20 -98 0
v -21 -98 0
v -21 -97 0
v -20 -97 0
v -21 -98 0
v -22 -98 0
v -22 -97 0
v -21 -97 0
v -22 -98 0
v -23 -98 0
v -23 -97 0
v -22 -97 0
v -23 -98 0
v -24 -98 0
v -24 -97 0
v -23 -97 0
v -24 -98 0
v -25 -98 0
v -25 -97 0
v -24 -97 0
v -25 -98 0
v -26 -98 0
v -26 -97 0
v -25 -97 0
v -29 -98 0
v -30 -98 0
v -30 -97 0
v -29 -97 0
v -30 -98 0
v -31 -98 0
v -31 -97 0
v -30 -97 0
v -31 -98 0
v -32 -98 0
v -32 -97 0
v -31 -97 0
v -32 -98 0
v -33 -98 0
v -33 -97 0
v -32 -97 0
v -33 -98 0
v -34 -98 0
v -34 -97 0
v -33 -97 0
v -38 -98 0
v -39 -98 0
v -39 -97 0
v -38 -97 0
v -48 -98 0
v -49 -98 0
v -49 -97 0
v -48 -97 0
v -49 -98 0
v -50 -98 0
v -50 -97 0
v -49 -97 0
v -50 -98 0
v -51 -98 0
v -51 -97 0
v -50 -97 0
v -51 -98 0
v -52 -98 0
v -52 -97 0
v -51 -97 0
v -52 -98 0
v -53 -98 0
v -53 -97 0
v -52 -97 0
v -53 -98 0
v -54 -98 0
v -54 -97 0
v -53 -97 0
v -54 -98 0
v -55 -98 0
v -55 -97 0
v -54 -97 0
v -55 -98 0
v -56 -98 0
v -56 -97 0
v -55 -97 0
v -56 -98 0
v -57 -98 0
v -57 -97 0
v -56 -97 0
v -57 -98 0
v -58 -98 0
v -58 -97 0
v -57 -97 0
v -58 -98 0
v -59 -98 0
v -59 -97 0
v -58 -97 0
v -59 -98 0
v -60 -98 0
v -60 -97 0
v -59 -97 0
v -60 -98 0
v -61 -98 0
v -61 -97 0
v -60 -97 0
v -61 -98 0
v -62 -98 0
v -62 -97 0
v -61 -97 0
v -1 -99 0
v -2 -99 0
v -2 -98 0
v -1 -98 0
v -2 -99 0
v -3 -99 0
v -3 -98 0
v -2 -98 0
v -3 -99 0
v -4 -99 0
v -4 -98 0
v -3 -98 0
v -4 -99 0
v -5 -99 0
v -5 -98 0
v -4 -98 0
v -5 -99 0
v -6 -99 0
v -6 -98 0
v -5 -98 0
v -6 -99 0
v -7 -99 0
v -7 -98 0
v -6 -98 0
v -7 -99 0
v -8 -99 0
v -8 -98 0
v -7 -98 0
v -8 -99 0
v -9 -99 0
v -9 -98 0
v -8 -98 0
v -9 -99 0
v -10 -99 0
v -10 -98 0
v -9 -98 0
v -10 -99 0
v -11 -99 0
v -11 -98 0
v -10 -98 0
v -11 -99 0
v -12 -99 0
v -12 -98 0
v -11 -98 0
v -12 -99 0
v -13 -99 0
v -13 -98 0
v -12 -98 0
v -13 -99 0
v -14 -99 0
v -14 -98 0
v -13 -98 0
v -17 -99 0
v -18 -99 0
v -18 -98 0
v -17 -98 0
v -18 -99 0
v -19 -99 0
v -19 -98 0
v -18 -98 0
v -19 -99 0
v -20 -99 0
v -20 -98 0
v -19 -98 0
v -20 -99 0
v -21 -99 0
v -21 -98 0
v -20 -98 0
v -21 -99 0
v -22 -99 0
v -22 -98 0
v -21 -98 0
v -22 -99 0
v -23 -99 0
v -23 -98 0
v -22 -98 0
v -23 -99 0
v -24 -99 0
v -24 -98 0
v -23 -98 0
v -24 -99 0
v -25 -99 0
v -25 -98 0
v -24 -98 0
v -25 -99 0
v -26 -99 0
v -26 -98 0
v -25 -98 0
v -31 -99 0
v -32 -99 0
v -32 -98 0
v -31 -98 0
v -38 -99 0
v -39 -99 0
v -39 -98 0
v -38 -98 0
v -48 -99 0
v -49 -99 0
v -49 -98 0
v -48 -98 0
v -49 -99 0
v -50 -99 0
v -50 -98 0
v -49 -98 0
v -50 -99 0
v -51 -99 0
v -51 -98 0
v -50 -98 0
v -51 -99 0
v -52 -99 0
v -52 -98 0
v -51 -98 0
v -52 -99 0
v -53 -99 0
v -53 -98 0
v -52 -98 0
v -53 -99 0
v -54 -99 0
v -54 -98 0
v -53 -98 0
v -54 -99 0
v -55 -99 0
v -55 -98 0
v -54 -98 0
v -55 -99 0
v -56 -99 0
v -56 -98 0
v -55 -98 0
v -56 -99 0
v -57 -99 0
v -57 -98 0
v -56 -98 0
v -57 -99 0
v -58 -99 0
v -58 -98 0
v -57 -98 0
v -58 -99 0
v -59 -99 0
v -59 -98 0
v -58 -98 0
v -59 -99 0
v -60 -99 0
v -60 -98 0
v -59 -98 0
v -60 -99 0
v -61 -99 0
v -61 -98 0
v -60 -98 0
v -61 -99 0
v -62 -99 0
v -62 -98 0
v -61 -98 0
v -1 -100 0
v -2 -100 0
v -2 -99 0
v -1 -99 0
v -2 -100 0
v -3 -100 0
v -3 -99 0
v -2 -99 0
v -3 -100 0
v -4 -100 0
v -4 -99 0
v -3 -99 0
v -4 -100 0
v -5 -100 0
v -5 -99 0
v -4 -99 0
v -5 -100 0
v -6 -100 0
v -6 -99 0
v -5 -99 0
v -6 -100 0
v -7 -100 0
v -7 -99 0
v -6 -99 0
v -7 -100 0
v -8 -100 0
v -8 -99 0
v -7 -99 0
v -8 -100 0
v -9 -100 0
v -9 -99 0
v -8 -99 0
v -9 -100 0
v -10 -100 0
v -10 -99 0
v -9 -99 0
v -10 -100 0
v -11 -100 0
v -11 -99 0
v -10 -99 0
v -11 -100 0
v -12 -100 0
v -12 -99 0
v -11 -99 0
v -12 -100 0
v -13 -100 0
v -13 -99 0
v -12 -99 0
v -13 -100 0
v -14 -100 0
v -14 -99 0
v -13 -99 0
v -17 -100 0
v -18 -100 0
v -18 -99 0
v -17 -99 0
v -18 -100 0
v -19 -100 0
v -19 -99 0
v -18 -99 0
v -19 -100 0
v -20 -100 0
v -20 -99 0
v -19 -99 0
v -20 -100 0
v -21 -100 0
v -21 -99 0
v -20 -99 0
v -21 -100 0
v -22 -100 0
v -22 -99 0
v -21 -99 0
v -22 -100 0
v -23 -100 0
v -23 -99 0
v -22 -99 0
v -23 -100 0
v -24 -100 0
v -24 -99 0
v -23 -99 0
v -24 -100 0
v -25 -100 0
v -25 -99 0
v -24 -99 0
v -25 -100 0
v -26 -100 0
v -26 -99 0
v -25 -99 0
v -31 -100 0
v -32 -100 0
v -32 -99 0
v -31 -99 0
v -38 -100 0
v -39 -100 0
v -39 -99 0
v -38 -99 0
v -48 -100 0
v -49 -100 0
v -49 -99 0
v -48 -99 0
v -49 -100 0
v -50 -100 0
v -50 -99 0
v -49 -99 0
v -50 -100 0
v -51 -100 0
v -51 -99 0
v -50 -99 0
v -51 -100 0
v -52 -100 0
v -52 -99 0
v -51 -99 0
v -52 -100 0
v -53 -100 0
v -53 -99 0
v -52 -99 0
v -53 -100 0
v -54 -100 0
v -54 -99 0
v -53 -99 0
v -54 -100 0
v -55 -100 0
v -55 -99 0
v -54 -99 0
v -55 -100 0
v -56 -100 0
v -56 -99 0
v -55 -99 0
v -56 -100 0
v -57 -100 0
v -57 -99 0
v -56 -99 0
v -57 -100 0
v -58 -100 0
v -58 -99 0
v -57 -99 0
v -58 -100 0
v -59 -100 0
v -59 -99 0
v -58 -99 0
v -59 -100 0
v -60 -100 0
v -60 -99 0
v -59 -99 0
v -60 -100 0
v -61 -100 0
v -61 -99 0
v -60 -99 0
v -61 -100 0
v -62 -100 0
v -62 -99 0
v -61 -99 0

# Texture cooridinates (Count = 70)
vt 0.5625 0.875
vt 0.625 0.875
vt 0.625 0.9375
vt 0.5625 0.9375
vt 0.25 0.8125
vt 0.3125 0.8125
vt 0.3125 0.875
vt 0.25 0.875
vt 0 0.9375
vt 0.0625 0.9375
vt 0.0625 1
vt 0 1
vt 0.125 0.9375
vt 0.125 1
vt 0.1875 0.9375
vt 0.1875 1
vt 0.4375 0.5625
vt 0.5 0.5625
vt 0.5 0.625
vt 0.4375 0.625
vt 0.5625 0.5625
vt 0.5625 0.625
vt 0.625 0.5625
vt 0.625 0.625
vt 0 0.375
vt 0.0625 0.375
vt 0.0625 0.4375
vt 0 0.4375
vt 0.0625 0.6875
vt 0.125 0.6875
vt 0.125 0.75
vt 0.0625 0.75
vt 0.1875 0.6875
vt 0.1875 0.75
vt 0.25 0.6875
vt 0.25 0.75
vt 0.3125 0.6875
vt 0.3125 0.75
vt 0.375 0.6875
vt 0.375 0.75
vt 0.625 0.25
vt 0.6875 0.25
vt 0.6875 0.3125
vt 0.625 0.3125
vt 0.5 0.5
vt 0.5625 0.5
vt 0.625 0.5
vt 0.5625 0.8125
vt 0.625 0.8125
vt 0.0625 0.625
vt 0.125 0.625
vt 0.1875 0.625
vt 0.25 0.625
vt 0.3125 0.625
vt 0.375 0.625
vt 0.4375 0.5
vt 0.5625 0.25
vt 0.5625 0.3125
vt 0.0625 0.5625
vt 0.125 0.5625
vt 0.1875 0.5625
vt 0.25 0.5625
vt 0.3125 0.5625
vt 0.375 0.5625
vt 0.1875 0.5
vt 0.25 0.5
vt 0.1875 0.4375
vt 0.25 0.4375
vt 0.1875 0.375
vt 0.25 0.375

# Normal
vn 0 0 -1

# Mesh description
g level_one_mesh_0001

# Faces
f 1/1/1 2/2/1 3/3/1 4/4/1
f 5/1/1 6/2/1 7/3/1 8/4/1
f 9/1/1 10/2/1 11/3/1 12/4/1
f 13/1/1 14/2/1 15/3/1 16/4/1
f 17/1/1 18/2/1 19/3/1 20/4/1
f 21/1/1 22/2/1 23/3/1 24/4/1
f 25/1/1 26/2/1 27/3/1 28/4/1
f 29/1/1 30/2/1 31/3/1 32/4/1
f 33/1/1 34/2/1 35/3/1 36/4/1
f 37/1/1 38/2/1 39/3/1 40/4/1
f 41/1/1 42/2/1 43/3/1 44/4/1
f 45/1/1 46/2/1 47/3/1 48/4/1
f 49/1/1 50/2/1 51/3/1 52/4/1
f 53/1/1 54/2/1 55/3/1 56/4/1
f 57/1/1 58/2/1 59/3/1 60/4/1
f 61/1/1 62/2/1 63/3/1 64/4/1
f 65/1/1 66/2/1 67/3/1 68/4/1
f 69/1/1 70/2/1 71/3/1 72/4/1
f 73/1/1 74/2/1 75/3/1 76/4/1
f 77/1/1 78/2/1 79/3/1 80/4/1
f 81/1/1 82/2/1 83/3/1 84/4/1
f 85/1/1 86/2/1 87/3/1 88/4/1
f 89/1/1 90/2/1 91/3/1 92/4/1
f 93/1/1 94/2/1 95/3/1 96/4/1
f 97/5/1 98/6/1 99/7/1 100/8/1
f 101/1/1 102/2/1 103/3/1 104/4/1
f 105/1/1 106/2/1 107/3/1 108/4/1
f 109/5/1 110/6/1 111/7/1 112/8/1
f 113/9/1 114/10/1 115/11/1 116/12/1
f 117/10/1 118/13/1 119/14/1 120/11/1
f 121/13/1 122/15/1 123/16/1 124/14/1
f 125/1/1 126/2/1 127/3/1 128/4/1
f 129/1/1 130/2/1 131/3/1 132/4/1
f 133/1/1 134/2/1 135/3/1 136/4/1
f 137/17/1 138/18/1 139/19/1 140/20/1
f 141/18/1 142/21/1 143/22/1 144/19/1
f 145/18/1 146/21/1 147/22/1 148/19/1
f 149/18/1 150/21/1 151/22/1 152/19/1
f 153/21/1 154/23/1 155/24/1 156/22/1
f 157/1/1 158/2/1 159/3/1 160/4/1
f 161/25/1 162/26/1 163/27/1 164/28/1
f 165/29/1 166/30/1 167/31/1 168/32/1
f 169/30/1 170/33/1 171/34/1 172/31/1
f 173/33/1 174/35/1 175/36/1 176/34/1
f 177/35/1 178/37/1 179/38/1 180/36/1
f 181/37/1 182/39/1 183/40/1 184/38/1
f 185/17/1 186/18/1 187/19/1 188/20/1
f 189/18/1 190/21/1 191/22/1 192/19/1
f 193/18/1 194/21/1 195/22/1 196/19/1
f 197/18/1 198/21/1 199/22/1 200/19/1
f 201/41/1 202/42/1 203/43/1 204/44/1
f 205/45/1 206/46/1 207/21/1 208/18/1
f 209/45/1 210/46/1 211/21/1 212/18/1
f 213/45/1 214/46/1 215/21/1 216/18/1
f 217/46/1 218/47/1 219/23/1 220/21/1
f 221/48/1 222/49/1 223/2/1 224/1/1
f 225/17/1 226/18/1 227/19/1 228/20/1
f 229/18/1 230/21/1 231/22/1 232/19/1
f 233/18/1 234/21/1 235/22/1 236/19/1
f 237/18/1 238/21/1 239/22/1 240/19/1
f 241/21/1 242/23/1 243/24/1 244/22/1
f 245/17/1 246/18/1 247/19/1 248/20/1
f 249/21/1 250/23/1 251/24/1 252/22/1
f 253/17/1 254/18/1 255/19/1 256/20/1
f 257/21/1 258/23/1 259/24/1 260/22/1
f 261/29/1 262/30/1 263/31/1 264/32/1
f 265/30/1 266/33/1 267/34/1 268/31/1
f 269/33/1 270/35/1 271/36/1 272/34/1
f 273/35/1 274/37/1 275/38/1 276/36/1
f 277/37/1 278/39/1 279/40/1 280/38/1
f 281/50/1 282/51/1 283/30/1 284/29/1
f 285/51/1 286/52/1 287/33/1 288/30/1
f 289/52/1 290/53/1 291/35/1 292/33/1
f 293/53/1 294/54/1 295/37/1 296/35/1
f 297/54/1 298/55/1 299/39/1 300/37/1
f 301/17/1 302/18/1 303/19/1 304/20/1
f 305/18/1 306/21/1 307/22/1 308/19/1
f 309/18/1 310/21/1 311/22/1 312/19/1
f 313/18/1 314/21/1 315/22/1 316/19/1
f 317/18/1 318/21/1 319/22/1 320/19/1
f 321/41/1 322/42/1 323/43/1 324/44/1
f 325/45/1 326/46/1 327/21/1 328/18/1
f 329/45/1 330/46/1 331/21/1 332/18/1
f 333/45/1 334/46/1 335/21/1 336/18/1
f 337/45/1 338/46/1 339/21/1 340/18/1
f 341/45/1 342/46/1 343/21/1 344/18/1
f 345/45/1 346/46/1 347/21/1 348/18/1
f 349/45/1 350/46/1 351/21/1 352/18/1
f 353/46/1 354/47/1 355/23/1 356/21/1
f 357/17/1 358/18/1 359/19/1 360/20/1
f 361/18/1 362/21/1 363/22/1 364/19/1
f 365/18/1 366/21/1 367/22/1 368/19/1
f 369/18/1 370/21/1 371/22/1 372/19/1
f 373/18/1 374/21/1 375/22/1 376/19/1
f 377/18/1 378/21/1 379/22/1 380/19/1
f 381/18/1 382/21/1 383/22/1 384/19/1
f 385/18/1 386/21/1 387/22/1 388/19/1
f 389/41/1 390/42/1 391/43/1 392/44/1
f 393/45/1 394/46/1 395/21/1 396/18/1
f 397/45/1 398/46/1 399/21/1 400/18/1
f 401/45/1 402/46/1 403/21/1 404/18/1
f 405/46/1 406/47/1 407/23/1 408/21/1
f 409/56/1 410/45/1 411/18/1 412/17/1
f 413/57/1 414/41/1 415/44/1 416/58/1
f 417/18/1 418/21/1 419/22/1 420/19/1
f 421/18/1 422/21/1 423/22/1 424/19/1
f 425/18/1 426/21/1 427/22/1 428/19/1
f 429/18/1 430/21/1 431/22/1 432/19/1
f 433/18/1 434/21/1 435/22/1 436/19/1
f 437/41/1 438/42/1 439/43/1 440/44/1
f 441/46/1 442/47/1 443/23/1 444/21/1
f 445/50/1 446/51/1 447/30/1 448/29/1
f 449/51/1 450/52/1 451/33/1 452/30/1
f 453/52/1 454/53/1 455/35/1 456/33/1
f 457/53/1 458/54/1 459/37/1 460/35/1
f 461/54/1 462/55/1 463/39/1 464/37/1
f 465/59/1 466/60/1 467/51/1 468/50/1
f 469/60/1 470/61/1 471/52/1 472/51/1
f 473/61/1 474/62/1 475/53/1 476/52/1
f 477/62/1 478/63/1 479/54/1 480/53/1
f 481/63/1 482/64/1 483/55/1 484/54/1
f 485/56/1 486/45/1 487/18/1 488/17/1
f 489/45/1 490/46/1 491/21/1 492/18/1
f 493/45/1 494/46/1 495/21/1 496/18/1
f 497/45/1 498/46/1 499/21/1 500/18/1
f 501/45/1 502/46/1 503/21/1 504/18/1
f 505/45/1 506/46/1 507/21/1 508/18/1
f 509/45/1 510/46/1 511/21/1 512/18/1
f 513/45/1 514/46/1 515/21/1 516/18/1
f 517/45/1 518/46/1 519/21/1 520/18/1
f 521/45/1 522/46/1 523/21/1 524/18/1
f 525/45/1 526/46/1 527/21/1 528/18/1
f 529/45/1 530/46/1 531/21/1 532/18/1
f 533/45/1 534/46/1 535/21/1 536/18/1
f 537/46/1 538/47/1 539/23/1 540/21/1
f 541/56/1 542/45/1 543/18/1 544/17/1
f 545/45/1 546/46/1 547/21/1 548/18/1
f 549/45/1 550/46/1 551/21/1 552/18/1
f 553/45/1 554/46/1 555/21/1 556/18/1
f 557/45/1 558/46/1 559/21/1 560/18/1
f 561/45/1 562/46/1 563/21/1 564/18/1
f 565/45/1 566/46/1 567/21/1 568/18/1
f 569/45/1 570/46/1 571/21/1 572/18/1
f 573/45/1 574/46/1 575/21/1 576/18/1
f 577/45/1 578/46/1 579/21/1 580/18/1
f 581/45/1 582/46/1 583/21/1 584/18/1
f 585/45/1 586/46/1 587/21/1 588/18/1
f 589/46/1 590/47/1 591/23/1 592/21/1
f 593/56/1 594/45/1 595/18/1 596/17/1
f 597/45/1 598/46/1 599/21/1 600/18/1
f 601/45/1 602/46/1 603/21/1 604/18/1
f 605/45/1 606/46/1 607/21/1 608/18/1
f 609/45/1 610/46/1 611/21/1 612/18/1
f 613/45/1 614/46/1 615/21/1 616/18/1
f 617/45/1 618/46/1 619/21/1 620/18/1
f 621/45/1 622/46/1 623/21/1 624/18/1
f 625/46/1 626/47/1 627/23/1 628/21/1
f 629/59/1 630/60/1 631/51/1 632/50/1
f 633/60/1 634/61/1 635/52/1 636/51/1
f 637/61/1 638/62/1 639/53/1 640/52/1
f 641/62/1 642/63/1 643/54/1 644/53/1
f 645/63/1 646/64/1 647/55/1 648/54/1
f 649/65/1 650/66/1 651/62/1 652/61/1
f 653/56/1 654/45/1 655/18/1 656/17/1
f 657/45/1 658/46/1 659/21/1 660/18/1
f 661/45/1 662/46/1 663/21/1 664/18/1
f 665/45/1 666/46/1 667/21/1 668/18/1
f 669/45/1 670/46/1 671/21/1 672/18/1
f 673/45/1 674/46/1 675/21/1 676/18/1
f 677/45/1 678/46/1 679/21/1 680/18/1
f 681/45/1 682/46/1 683/21/1 684/18/1
f 685/45/1 686/46/1 687/21/1 688/18/1
f 689/45/1 690/46/1 691/21/1 692/18/1
f 693/45/1 694/46/1 695/21/1 696/18/1
f 697/45/1 698/46/1 699/21/1 700/18/1
f 701/45/1 702/46/1 703/21/1 704/18/1
f 705/46/1 706/47/1 707/23/1 708/21/1
f 709/56/1 710/45/1 711/18/1 712/17/1
f 713/45/1 714/46/1 715/21/1 716/18/1
f 717/45/1 718/46/1 719/21/1 720/18/1
f 721/45/1 722/46/1 723/21/1 724/18/1
f 725/45/1 726/46/1 727/21/1 728/18/1
f 729/45/1 730/46/1 731/21/1 732/18/1
f 733/45/1 734/46/1 735/21/1 736/18/1
f 737/45/1 738/46/1 739/21/1 740/18/1
f 741/45/1 742/46/1 743/21/1 744/18/1
f 745/45/1 746/46/1 747/21/1 748/18/1
f 749/45/1 750/46/1 751/21/1 752/18/1
f 753/45/1 754/46/1 755/21/1 756/18/1
f 757/46/1 758/47/1 759/23/1 760/21/1
f 761/56/1 762/45/1 763/18/1 764/17/1
f 765/45/1 766/46/1 767/21/1 768/18/1
f 769/45/1 770/46/1 771/21/1 772/18/1
f 773/45/1 774/46/1 775/21/1 776/18/1
f 777/45/1 778/46/1 779/21/1 780/18/1
f 781/45/1 782/46/1 783/21/1 784/18/1
f 785/45/1 786/46/1 787/21/1 788/18/1
f 789/45/1 790/46/1 791/21/1 792/18/1
f 793/46/1 794/47/1 795/23/1 796/21/1
f 797/65/1 798/66/1 799/62/1 800/61/1
f 801/67/1 802/68/1 803/66/1 804/65/1
f 805/56/1 806/45/1 807/18/1 808/17/1
f 809/45/1 810/46/1 811/21/1 812/18/1
f 813/45/1 814/46/1 815/21/1 816/18/1
f 817/45/1 818/46/1 819/21/1 820/18/1
f 821/45/1 822/46/1 823/21/1 824/18/1
f 825/45/1 826/46/1 827/21/1 828/18/1
f 829/45/1 830/46/1 831/21/1 832/18/1
f 833/45/1 834/46/1 835/21/1 836/18/1
f 837/45/1 838/46/1 839/21/1 840/18/1
f 841/45/1 842/46/1 843/21/1 844/18/1
f 845/45/1 846/46/1 847/21/1 848/18/1
f 849/45/1 850/46/1 851/21/1 852/18/1
f 853/45/1 854/46/1 855/21/1 856/18/1
f 857/46/1 858/47/1 859/23/1 860/21/1
f 861/56/1 862/45/1 863/18/1 864/17/1
f 865/45/1 866/46/1 867/21/1 868/18/1
f 869/45/1 870/46/1 871/21/1 872/18/1
f 873/45/1 874/46/1 875/21/1 876/18/1
f 877/45/1 878/46/1 879/21/1 880/18/1
f 881/45/1 882/46/1 883/21/1 884/18/1
f 885/45/1 886/46/1 887/21/1 888/18/1
f 889/45/1 890/46/1 891/21/1 892/18/1
f 893/45/1 894/46/1 895/21/1 896/18/1
f 897/45/1 898/46/1 899/21/1 900/18/1
f 901/45/1 902/46/1 903/21/1 904/18/1
f 905/45/1 906/46/1 907/21/1 908/18/1
f 909/46/1 910/47/1 911/23/1 912/21/1
f 913/56/1 914/45/1 915/18/1 916/17/1
f 917/45/1 918/46/1 919/21/1 920/18/1
f 921/45/1 922/46/1 923/21/1 924/18/1
f 925/45/1 926/46/1 927/21/1 928/18/1
f 929/45/1 930/46/1 931/21/1 932/18/1
f 933/45/1 934/46/1 935/21/1 936/18/1
f 937/45/1 938/46/1 939/21/1 940/18/1
f 941/45/1 942/46/1 943/21/1 944/18/1
f 945/46/1 946/47/1 947/23/1 948/21/1
f 949/67/1 950/68/1 951/66/1 952/65/1
f 953/69/1 954/70/1 955/68/1 956/67/1
f 957/56/1 958/45/1 959/18/1 960/17/1
f 961/45/1 962/46/1 963/21/1 964/18/1
f 965/45/1 966/46/1 967/21/1 968/18/1
f 969/45/1 970/46/1 971/21/1 972/18/1
f 973/45/1 974/46/1 975/21/1 976/18/1
f 977/45/1 978/46/1 979/21/1 980/18/1
f 981/45/1 982/46/1 983/21/1 984/18/1
f 985/45/1 986/46/1 987/21/1 988/18/1
f 989/45/1 990/46/1 991/21/1 992/18/1
f 993/45/1 994/46/1 995/21/1 996/18/1
f 997/45/1 998/46/1 999/21/1 1000/18/1
f 1001/45/1 1002/46/1 1003/21/1 1004/18/1
f 1005/45/1 1006/46/1 1007/21/1 1008/18/1
f 1009/46/1 1010/47/1 1011/23/1 1012/21/1

